<svg width="100%" height="100%" style="display: block;" viewBox="0 0 240 48" fill="#ffff" xmlns="http://www.w3.org/2000/svg">
<path d="M2.04468 31.221L4.04392 26.7682H11.4502L13.4722 31.221H15.6304L8.74668 16.3857H6.88375L0 31.221H2.04468ZM7.67891 18.703H7.81522L10.7459 25.1779H4.7482L7.67891 18.703Z" ></path>
<path d="M34.3263 31.221V16.3857H32.327L26.7837 25.7231H26.7383L21.1949 16.3857H19.1048V31.221H20.9904V19.9753H21.104L26.4656 28.9946H26.8746L32.2362 19.9753H32.3498V31.221H34.3263Z" ></path>
<path d="M48.6642 31.221C50.6408 31.221 51.6858 30.6985 52.481 29.9488C53.4352 29.04 53.8214 27.9495 53.8214 26.8818C53.8214 25.0643 52.7309 23.5194 50.9361 23.1559C52.1629 22.747 53.0489 21.452 53.0489 20.0207C53.0489 19.112 52.6854 18.3168 52.0493 17.6807C51.2769 16.9083 50.0955 16.3857 48.4371 16.3857H39.8267V31.221H48.6642ZM49.0277 24.3373C49.8456 24.3373 50.5726 24.6781 51.0724 25.2006C51.5041 25.6322 51.7767 26.2229 51.7767 26.859C51.7767 27.5179 51.5041 28.1767 51.0043 28.6538C50.4363 29.2218 49.5957 29.4717 48.7324 29.4717H41.8032V24.3373H49.0277ZM48.2326 18.1351C49.1641 18.1351 49.8683 18.3623 50.3909 18.8621C50.7771 19.271 51.0043 19.7935 51.0043 20.3842C51.0043 21.0203 50.7544 21.6338 50.3 22.0881C49.8456 22.5425 49.2095 22.747 48.5052 22.747H41.8032V18.1351H48.2326Z" ></path>
<path d="M58.4641 31.221L60.4634 26.7682H67.8697L69.8916 31.221H72.0499L65.1661 16.3857H63.3032L56.4195 31.221H58.4641ZM64.0984 18.703H64.2347L67.1654 25.1779H61.1677L64.0984 18.703Z"></path>
<path d="M77.5008 31.221V25.1779H83.5439L86.9517 31.221H89.2009L85.5432 24.928C87.6333 24.36 88.9964 22.7924 88.9964 20.7932C88.9964 19.6572 88.5875 18.6576 87.8605 17.8852C86.929 16.9083 85.6113 16.3857 83.703 16.3857H75.5242V31.221H77.5008ZM83.703 18.1351C84.7253 18.1351 85.6113 18.3168 86.3383 19.0438C86.77 19.4982 87.0426 20.1116 87.0426 20.7704C87.0426 22.2244 85.8385 23.4285 84.2028 23.4285H77.5008V18.1351H83.703Z" ></path>
<path d="M110.268 31.2215V25.1783H116.311C118.151 25.1783 119.4 24.6785 120.286 23.8152C121.104 23.0428 121.604 21.975 121.604 20.7482C121.604 19.7031 121.218 18.7035 120.468 17.8856C119.537 16.9087 118.242 16.3862 116.311 16.3862H108.291V31.2215H110.268ZM116.311 18.1356C117.288 18.1356 118.242 18.2946 118.946 19.0443C119.4 19.5441 119.65 20.1121 119.65 20.7709C119.65 21.4525 119.355 22.1113 118.855 22.5884C118.083 23.3154 117.151 23.429 116.311 23.429H110.268V18.1356H116.311Z"></path>
<path d="M124.333 31.2215L126.332 26.7686H133.738L135.76 31.2215H137.918L131.035 16.3862H129.172L122.288 31.2215H124.333ZM129.967 18.7035H130.103L133.034 25.1783H127.036L129.967 18.7035Z"></path>
<path d="M143.369 31.2215V25.1783H149.412L152.82 31.2215H155.069L151.412 24.9284C153.502 24.3605 154.865 22.7929 154.865 20.7936C154.865 19.6577 154.456 18.6581 153.729 17.8856C152.798 16.9087 151.48 16.3862 149.572 16.3862H141.393V31.2215H143.369ZM149.572 18.1356C150.594 18.1356 151.48 18.3173 152.207 19.0443C152.639 19.4987 152.911 20.1121 152.911 20.7709C152.911 22.2249 151.707 23.429 150.071 23.429H143.369V18.1356H149.572Z" ></path>
<path d="M157.275 18.1356H163.045V31.2215H165.022V18.1356H170.769V16.3862H157.275V18.1356Z" ></path>
<path d="M185.474 16.3862V27.7683H185.451L176.023 16.3862H174.228V31.2215H176.205V19.8395H176.228L185.656 31.2215H187.451V16.3862H185.474Z" ></path>
<path d="M200.928 22.543H194.93V18.1356H204.881V16.3862H192.954V31.2215H205.403V29.4722H194.93V24.2923H200.928V22.543Z" ></path>
<path d="M211.215 31.2215V25.1783H217.258L220.666 31.2215H222.915L219.257 24.9284C221.347 24.3605 222.71 22.7929 222.71 20.7936C222.71 19.6577 222.301 18.6581 221.574 17.8856C220.643 16.9087 219.325 16.3862 217.417 16.3862H209.238V31.2215H211.215ZM217.417 18.1356C218.439 18.1356 219.325 18.3173 220.052 19.0443C220.484 19.4987 220.757 20.1121 220.757 20.7709C220.757 22.2249 219.552 23.429 217.917 23.429H211.215V18.1356H217.417Z"></path>
<path d="M238.91 18.1583C237.774 17.2268 235.366 16 232.299 16C229.641 16 226.392 17.0223 226.392 20.4074C226.392 23.8379 230.027 24.0651 233.23 24.2696C235.752 24.4513 238.024 24.7921 238.024 27.0185C238.024 29.0178 235.934 29.9265 233.412 29.9265C230.095 29.9265 228.028 28.3589 226.778 27.2003L225.574 28.5634C227.187 30.0401 229.596 31.6077 233.367 31.6077C236.934 31.6077 240.001 30.2219 240.001 26.7686C240.001 22.7929 235.82 22.543 233.23 22.3612C230.822 22.2249 228.369 22.134 228.369 20.2257C228.369 18.3627 230.323 17.6812 232.231 17.6812C234.957 17.6812 236.843 18.7262 237.729 19.5214L238.91 18.1583Z"></path>
<path d="M101.485 25.9369C101.485 27.7294 100.032 29.1824 98.2397 29.1824C96.4472 29.1824 94.9941 27.7294 94.9941 25.9369C94.9941 24.1445 96.4472 22.6914 98.2397 22.6914C100.032 22.6914 101.485 24.1445 101.485 25.9369Z" fill="#F5B840"></path>
</svg>